<mxfile host="app.diagrams.net" modified="2023-03-28T09:02:15.809Z" agent="Mozilla/5.0 (Macintosh; Intel Mac OS X 10_15_7) AppleWebKit/537.36 (KHTML, like Gecko) Chrome/111.0.0.0 Safari/537.36" etag="ZMjVAeAOXCTRCcsUaizB" version="21.1.1" type="github">
  <diagram name="Strona-1" id="Mq5pYO8SvMUOLr7UjTYg">
    <mxGraphModel dx="3166" dy="1117" grid="1" gridSize="10" guides="1" tooltips="1" connect="1" arrows="1" fold="1" page="1" pageScale="1" pageWidth="827" pageHeight="1169" math="0" shadow="0">
      <root>
        <mxCell id="0" />
        <mxCell id="1" parent="0" />
        <mxCell id="Lx5xzdE4FL_pWe1vIzk7-6" style="edgeStyle=orthogonalEdgeStyle;rounded=0;orthogonalLoop=1;jettySize=auto;html=1;entryX=0.5;entryY=0;entryDx=0;entryDy=0;" edge="1" parent="1" source="Lx5xzdE4FL_pWe1vIzk7-1" target="Lx5xzdE4FL_pWe1vIzk7-4">
          <mxGeometry relative="1" as="geometry" />
        </mxCell>
        <mxCell id="Lx5xzdE4FL_pWe1vIzk7-7" style="edgeStyle=orthogonalEdgeStyle;rounded=0;orthogonalLoop=1;jettySize=auto;html=1;entryX=0.5;entryY=0;entryDx=0;entryDy=0;" edge="1" parent="1" source="Lx5xzdE4FL_pWe1vIzk7-1" target="Lx5xzdE4FL_pWe1vIzk7-3">
          <mxGeometry relative="1" as="geometry" />
        </mxCell>
        <mxCell id="Lx5xzdE4FL_pWe1vIzk7-8" style="edgeStyle=orthogonalEdgeStyle;rounded=0;orthogonalLoop=1;jettySize=auto;html=1;entryX=0.5;entryY=0;entryDx=0;entryDy=0;" edge="1" parent="1" source="Lx5xzdE4FL_pWe1vIzk7-1" target="Lx5xzdE4FL_pWe1vIzk7-2">
          <mxGeometry relative="1" as="geometry" />
        </mxCell>
        <mxCell id="Lx5xzdE4FL_pWe1vIzk7-1" value="Start screen" style="rounded=1;whiteSpace=wrap;html=1;" vertex="1" parent="1">
          <mxGeometry x="340" y="80" width="120" height="60" as="geometry" />
        </mxCell>
        <mxCell id="Lx5xzdE4FL_pWe1vIzk7-11" style="edgeStyle=orthogonalEdgeStyle;rounded=0;orthogonalLoop=1;jettySize=auto;html=1;" edge="1" parent="1" source="Lx5xzdE4FL_pWe1vIzk7-2">
          <mxGeometry relative="1" as="geometry">
            <mxPoint x="400" y="320" as="targetPoint" />
            <Array as="points">
              <mxPoint x="540" y="280" />
              <mxPoint x="400" y="280" />
            </Array>
          </mxGeometry>
        </mxCell>
        <mxCell id="Lx5xzdE4FL_pWe1vIzk7-2" value="Manage account" style="rounded=1;whiteSpace=wrap;html=1;" vertex="1" parent="1">
          <mxGeometry x="480" y="180" width="120" height="60" as="geometry" />
        </mxCell>
        <mxCell id="Lx5xzdE4FL_pWe1vIzk7-10" style="edgeStyle=orthogonalEdgeStyle;rounded=0;orthogonalLoop=1;jettySize=auto;html=1;entryX=0.5;entryY=0;entryDx=0;entryDy=0;" edge="1" parent="1" source="Lx5xzdE4FL_pWe1vIzk7-3" target="Lx5xzdE4FL_pWe1vIzk7-9">
          <mxGeometry relative="1" as="geometry" />
        </mxCell>
        <mxCell id="Lx5xzdE4FL_pWe1vIzk7-3" value="Add Listing" style="rounded=1;whiteSpace=wrap;html=1;" vertex="1" parent="1">
          <mxGeometry x="340" y="180" width="120" height="60" as="geometry" />
        </mxCell>
        <mxCell id="Lx5xzdE4FL_pWe1vIzk7-41" style="edgeStyle=orthogonalEdgeStyle;rounded=0;orthogonalLoop=1;jettySize=auto;html=1;entryX=0.5;entryY=0;entryDx=0;entryDy=0;" edge="1" parent="1" source="Lx5xzdE4FL_pWe1vIzk7-4" target="Lx5xzdE4FL_pWe1vIzk7-38">
          <mxGeometry relative="1" as="geometry" />
        </mxCell>
        <mxCell id="Lx5xzdE4FL_pWe1vIzk7-43" style="edgeStyle=orthogonalEdgeStyle;rounded=0;orthogonalLoop=1;jettySize=auto;html=1;entryX=0.5;entryY=0;entryDx=0;entryDy=0;" edge="1" parent="1" source="Lx5xzdE4FL_pWe1vIzk7-4" target="Lx5xzdE4FL_pWe1vIzk7-40">
          <mxGeometry relative="1" as="geometry" />
        </mxCell>
        <mxCell id="Lx5xzdE4FL_pWe1vIzk7-4" value="Search" style="rounded=1;whiteSpace=wrap;html=1;" vertex="1" parent="1">
          <mxGeometry x="200" y="180" width="120" height="60" as="geometry" />
        </mxCell>
        <mxCell id="Lx5xzdE4FL_pWe1vIzk7-9" value="Logged in?" style="rhombus;whiteSpace=wrap;html=1;" vertex="1" parent="1">
          <mxGeometry x="360" y="320" width="80" height="80" as="geometry" />
        </mxCell>
        <mxCell id="Lx5xzdE4FL_pWe1vIzk7-36" style="edgeStyle=orthogonalEdgeStyle;rounded=0;orthogonalLoop=1;jettySize=auto;html=1;entryX=0;entryY=0.5;entryDx=0;entryDy=0;" edge="1" parent="1" source="Lx5xzdE4FL_pWe1vIzk7-12" target="Lx5xzdE4FL_pWe1vIzk7-31">
          <mxGeometry relative="1" as="geometry">
            <mxPoint x="700" y="600" as="targetPoint" />
            <Array as="points">
              <mxPoint x="620" y="430" />
              <mxPoint x="620" y="630" />
            </Array>
          </mxGeometry>
        </mxCell>
        <mxCell id="Lx5xzdE4FL_pWe1vIzk7-12" value="Add Listing" style="rounded=1;whiteSpace=wrap;html=1;" vertex="1" parent="1">
          <mxGeometry x="480" y="400" width="120" height="60" as="geometry" />
        </mxCell>
        <mxCell id="Lx5xzdE4FL_pWe1vIzk7-37" style="edgeStyle=orthogonalEdgeStyle;rounded=0;orthogonalLoop=1;jettySize=auto;html=1;entryX=0;entryY=0.5;entryDx=0;entryDy=0;" edge="1" parent="1" source="Lx5xzdE4FL_pWe1vIzk7-13" target="Lx5xzdE4FL_pWe1vIzk7-31">
          <mxGeometry relative="1" as="geometry">
            <Array as="points">
              <mxPoint x="340" y="430" />
              <mxPoint x="340" y="630" />
            </Array>
          </mxGeometry>
        </mxCell>
        <mxCell id="Lx5xzdE4FL_pWe1vIzk7-13" value="Register" style="rounded=1;whiteSpace=wrap;html=1;" vertex="1" parent="1">
          <mxGeometry x="200" y="400" width="120" height="60" as="geometry" />
        </mxCell>
        <mxCell id="Lx5xzdE4FL_pWe1vIzk7-19" value="" style="endArrow=classic;html=1;rounded=0;exitX=1.029;exitY=0.502;exitDx=0;exitDy=0;exitPerimeter=0;entryX=0.5;entryY=0;entryDx=0;entryDy=0;" edge="1" parent="1" source="Lx5xzdE4FL_pWe1vIzk7-9" target="Lx5xzdE4FL_pWe1vIzk7-12">
          <mxGeometry relative="1" as="geometry">
            <mxPoint x="370" y="390" as="sourcePoint" />
            <mxPoint x="470" y="390" as="targetPoint" />
            <Array as="points">
              <mxPoint x="540" y="360" />
            </Array>
          </mxGeometry>
        </mxCell>
        <mxCell id="Lx5xzdE4FL_pWe1vIzk7-20" value="Yes" style="edgeLabel;resizable=0;html=1;align=center;verticalAlign=middle;" connectable="0" vertex="1" parent="Lx5xzdE4FL_pWe1vIzk7-19">
          <mxGeometry relative="1" as="geometry" />
        </mxCell>
        <mxCell id="Lx5xzdE4FL_pWe1vIzk7-21" value="" style="endArrow=classic;html=1;rounded=0;entryX=0.5;entryY=0;entryDx=0;entryDy=0;exitX=0;exitY=0.5;exitDx=0;exitDy=0;" edge="1" parent="1" source="Lx5xzdE4FL_pWe1vIzk7-9" target="Lx5xzdE4FL_pWe1vIzk7-13">
          <mxGeometry relative="1" as="geometry">
            <mxPoint x="380" y="350" as="sourcePoint" />
            <mxPoint x="480" y="350" as="targetPoint" />
            <Array as="points">
              <mxPoint x="260" y="360" />
            </Array>
          </mxGeometry>
        </mxCell>
        <mxCell id="Lx5xzdE4FL_pWe1vIzk7-22" value="No" style="edgeLabel;resizable=0;html=1;align=center;verticalAlign=middle;" connectable="0" vertex="1" parent="Lx5xzdE4FL_pWe1vIzk7-21">
          <mxGeometry relative="1" as="geometry" />
        </mxCell>
        <mxCell id="Lx5xzdE4FL_pWe1vIzk7-23" value="" style="endArrow=classic;html=1;rounded=0;entryX=0.5;entryY=0;entryDx=0;entryDy=0;" edge="1" parent="1" target="Lx5xzdE4FL_pWe1vIzk7-24">
          <mxGeometry width="50" height="50" relative="1" as="geometry">
            <mxPoint x="540" y="360" as="sourcePoint" />
            <mxPoint x="690" y="400" as="targetPoint" />
            <Array as="points">
              <mxPoint x="700" y="360" />
            </Array>
          </mxGeometry>
        </mxCell>
        <mxCell id="Lx5xzdE4FL_pWe1vIzk7-29" style="edgeStyle=orthogonalEdgeStyle;rounded=0;orthogonalLoop=1;jettySize=auto;html=1;exitX=0.5;exitY=1;exitDx=0;exitDy=0;entryX=0.5;entryY=0;entryDx=0;entryDy=0;" edge="1" parent="1" source="Lx5xzdE4FL_pWe1vIzk7-24" target="Lx5xzdE4FL_pWe1vIzk7-25">
          <mxGeometry relative="1" as="geometry" />
        </mxCell>
        <mxCell id="Lx5xzdE4FL_pWe1vIzk7-52" style="edgeStyle=orthogonalEdgeStyle;rounded=0;orthogonalLoop=1;jettySize=auto;html=1;entryX=0;entryY=0.5;entryDx=0;entryDy=0;" edge="1" parent="1" source="Lx5xzdE4FL_pWe1vIzk7-24" target="Lx5xzdE4FL_pWe1vIzk7-26">
          <mxGeometry relative="1" as="geometry" />
        </mxCell>
        <mxCell id="Lx5xzdE4FL_pWe1vIzk7-24" value="Manage account" style="rounded=1;whiteSpace=wrap;html=1;" vertex="1" parent="1">
          <mxGeometry x="640" y="400" width="120" height="60" as="geometry" />
        </mxCell>
        <mxCell id="Lx5xzdE4FL_pWe1vIzk7-33" style="edgeStyle=orthogonalEdgeStyle;rounded=0;orthogonalLoop=1;jettySize=auto;html=1;" edge="1" parent="1" source="Lx5xzdE4FL_pWe1vIzk7-25">
          <mxGeometry relative="1" as="geometry">
            <mxPoint x="700.0000000000002" y="600" as="targetPoint" />
            <Array as="points">
              <mxPoint x="700" y="590" />
              <mxPoint x="700" y="590" />
            </Array>
          </mxGeometry>
        </mxCell>
        <mxCell id="Lx5xzdE4FL_pWe1vIzk7-25" value="Edit" style="rounded=1;whiteSpace=wrap;html=1;" vertex="1" parent="1">
          <mxGeometry x="640" y="500" width="120" height="60" as="geometry" />
        </mxCell>
        <mxCell id="Lx5xzdE4FL_pWe1vIzk7-53" style="edgeStyle=orthogonalEdgeStyle;rounded=0;orthogonalLoop=1;jettySize=auto;html=1;entryX=0.5;entryY=1;entryDx=0;entryDy=0;" edge="1" parent="1" source="Lx5xzdE4FL_pWe1vIzk7-26" target="Lx5xzdE4FL_pWe1vIzk7-31">
          <mxGeometry relative="1" as="geometry">
            <Array as="points">
              <mxPoint x="860" y="470" />
              <mxPoint x="780" y="470" />
              <mxPoint x="780" y="680" />
              <mxPoint x="700" y="680" />
            </Array>
          </mxGeometry>
        </mxCell>
        <mxCell id="Lx5xzdE4FL_pWe1vIzk7-54" style="edgeStyle=orthogonalEdgeStyle;rounded=0;orthogonalLoop=1;jettySize=auto;html=1;entryX=0.5;entryY=0;entryDx=0;entryDy=0;" edge="1" parent="1" source="Lx5xzdE4FL_pWe1vIzk7-26" target="Lx5xzdE4FL_pWe1vIzk7-27">
          <mxGeometry relative="1" as="geometry" />
        </mxCell>
        <mxCell id="Lx5xzdE4FL_pWe1vIzk7-55" style="edgeStyle=orthogonalEdgeStyle;rounded=0;orthogonalLoop=1;jettySize=auto;html=1;entryX=0.5;entryY=0;entryDx=0;entryDy=0;" edge="1" parent="1" source="Lx5xzdE4FL_pWe1vIzk7-26" target="Lx5xzdE4FL_pWe1vIzk7-25">
          <mxGeometry relative="1" as="geometry">
            <Array as="points">
              <mxPoint x="860" y="470" />
              <mxPoint x="700" y="470" />
            </Array>
          </mxGeometry>
        </mxCell>
        <mxCell id="Lx5xzdE4FL_pWe1vIzk7-26" value="Show listings" style="rounded=1;whiteSpace=wrap;html=1;" vertex="1" parent="1">
          <mxGeometry x="800" y="400" width="120" height="60" as="geometry" />
        </mxCell>
        <mxCell id="Lx5xzdE4FL_pWe1vIzk7-27" value="Show statistics" style="rounded=1;whiteSpace=wrap;html=1;" vertex="1" parent="1">
          <mxGeometry x="800" y="500" width="120" height="60" as="geometry" />
        </mxCell>
        <mxCell id="Lx5xzdE4FL_pWe1vIzk7-30" value="" style="endArrow=classic;html=1;rounded=0;entryX=0.5;entryY=0;entryDx=0;entryDy=0;" edge="1" parent="1" target="Lx5xzdE4FL_pWe1vIzk7-27">
          <mxGeometry width="50" height="50" relative="1" as="geometry">
            <mxPoint x="700" y="460" as="sourcePoint" />
            <mxPoint x="750" y="440" as="targetPoint" />
          </mxGeometry>
        </mxCell>
        <mxCell id="Lx5xzdE4FL_pWe1vIzk7-35" style="edgeStyle=orthogonalEdgeStyle;rounded=0;orthogonalLoop=1;jettySize=auto;html=1;entryX=0.5;entryY=0;entryDx=0;entryDy=0;" edge="1" parent="1" source="Lx5xzdE4FL_pWe1vIzk7-31" target="Lx5xzdE4FL_pWe1vIzk7-1">
          <mxGeometry relative="1" as="geometry">
            <Array as="points">
              <mxPoint x="940" y="630" />
              <mxPoint x="940" y="60" />
              <mxPoint x="400" y="60" />
            </Array>
          </mxGeometry>
        </mxCell>
        <mxCell id="Lx5xzdE4FL_pWe1vIzk7-31" value="Home" style="rounded=1;whiteSpace=wrap;html=1;" vertex="1" parent="1">
          <mxGeometry x="640" y="600" width="120" height="60" as="geometry" />
        </mxCell>
        <mxCell id="Lx5xzdE4FL_pWe1vIzk7-34" value="" style="endArrow=classic;html=1;rounded=0;exitX=0.5;exitY=1;exitDx=0;exitDy=0;" edge="1" parent="1" source="Lx5xzdE4FL_pWe1vIzk7-27">
          <mxGeometry width="50" height="50" relative="1" as="geometry">
            <mxPoint x="670" y="620" as="sourcePoint" />
            <mxPoint x="700" y="600" as="targetPoint" />
          </mxGeometry>
        </mxCell>
        <mxCell id="Lx5xzdE4FL_pWe1vIzk7-49" style="edgeStyle=orthogonalEdgeStyle;rounded=0;orthogonalLoop=1;jettySize=auto;html=1;entryX=0;entryY=0.5;entryDx=0;entryDy=0;" edge="1" parent="1" source="Lx5xzdE4FL_pWe1vIzk7-38" target="Lx5xzdE4FL_pWe1vIzk7-31">
          <mxGeometry relative="1" as="geometry">
            <Array as="points">
              <mxPoint x="190" y="310" />
              <mxPoint x="190" y="630" />
            </Array>
          </mxGeometry>
        </mxCell>
        <mxCell id="Lx5xzdE4FL_pWe1vIzk7-38" value="Comment" style="rounded=1;whiteSpace=wrap;html=1;" vertex="1" parent="1">
          <mxGeometry x="200" y="280" width="120" height="60" as="geometry" />
        </mxCell>
        <mxCell id="Lx5xzdE4FL_pWe1vIzk7-47" style="edgeStyle=orthogonalEdgeStyle;rounded=0;orthogonalLoop=1;jettySize=auto;html=1;" edge="1" parent="1" source="Lx5xzdE4FL_pWe1vIzk7-39">
          <mxGeometry relative="1" as="geometry">
            <mxPoint x="640" y="630" as="targetPoint" />
            <Array as="points">
              <mxPoint x="190" y="430" />
              <mxPoint x="190" y="630" />
            </Array>
          </mxGeometry>
        </mxCell>
        <mxCell id="Lx5xzdE4FL_pWe1vIzk7-39" value="Review" style="rounded=1;whiteSpace=wrap;html=1;" vertex="1" parent="1">
          <mxGeometry x="60" y="400" width="120" height="60" as="geometry" />
        </mxCell>
        <mxCell id="Lx5xzdE4FL_pWe1vIzk7-45" style="edgeStyle=orthogonalEdgeStyle;rounded=0;orthogonalLoop=1;jettySize=auto;html=1;entryX=0.5;entryY=0;entryDx=0;entryDy=0;" edge="1" parent="1" source="Lx5xzdE4FL_pWe1vIzk7-40" target="Lx5xzdE4FL_pWe1vIzk7-44">
          <mxGeometry relative="1" as="geometry" />
        </mxCell>
        <mxCell id="Lx5xzdE4FL_pWe1vIzk7-46" style="edgeStyle=orthogonalEdgeStyle;rounded=0;orthogonalLoop=1;jettySize=auto;html=1;entryX=0.5;entryY=0;entryDx=0;entryDy=0;" edge="1" parent="1" source="Lx5xzdE4FL_pWe1vIzk7-40" target="Lx5xzdE4FL_pWe1vIzk7-39">
          <mxGeometry relative="1" as="geometry" />
        </mxCell>
        <mxCell id="Lx5xzdE4FL_pWe1vIzk7-40" value="See author" style="rounded=1;whiteSpace=wrap;html=1;" vertex="1" parent="1">
          <mxGeometry x="-80" y="280" width="120" height="60" as="geometry" />
        </mxCell>
        <mxCell id="Lx5xzdE4FL_pWe1vIzk7-48" style="edgeStyle=orthogonalEdgeStyle;rounded=0;orthogonalLoop=1;jettySize=auto;html=1;entryX=0;entryY=0.5;entryDx=0;entryDy=0;" edge="1" parent="1" source="Lx5xzdE4FL_pWe1vIzk7-44" target="Lx5xzdE4FL_pWe1vIzk7-31">
          <mxGeometry relative="1" as="geometry">
            <Array as="points">
              <mxPoint x="50" y="430" />
              <mxPoint x="50" y="630" />
            </Array>
          </mxGeometry>
        </mxCell>
        <mxCell id="Lx5xzdE4FL_pWe1vIzk7-44" value="Rate" style="rounded=1;whiteSpace=wrap;html=1;" vertex="1" parent="1">
          <mxGeometry x="-80" y="400" width="120" height="60" as="geometry" />
        </mxCell>
      </root>
    </mxGraphModel>
  </diagram>
</mxfile>
